<?xml version="1.0" encoding="UTF-8"?>
<svg width="32px" height="31px" viewBox="0 0 32 31" version="1.1" xmlns="http://www.w3.org/2000/svg" xmlns:xlink="http://www.w3.org/1999/xlink">
    <!-- Generator: Sketch 51.2 (57519) - http://www.bohemiancoding.com/sketch -->
    <title>Bean_outline</title>
    <desc>Created with Sketch.</desc>
    <defs></defs>
    <g id="Page-1" stroke="none" stroke-width="1" fill="none" fill-rule="evenodd" stroke-linecap="round" stroke-linejoin="round">
        <g id="Artboard" transform="translate(-359.000000, -295.000000)" stroke="#201009" stroke-width="0.5">
            <g id="CoffeeIcons" transform="translate(103.000000, 92.000000)">
                <g id="outline" transform="translate(257.000000, 0.000000)">
                    <g id="Bean_" transform="translate(0.000000, 203.000000)">
                        <g id="Group">
                            <g transform="translate(0.000000, 6.382353)" id="Shape">
                                <path d="M16.5628571,22.7029412 C16.5628571,22.7029412 14.7914286,15.5911765 9.83142857,12.6735294 C4.87142857,9.75588235 3.1,2.64411765 3.1,2.64411765 C-0.708571429,5.37941176 -0.797142857,12.1264706 2.92285714,17.5970588 C6.64285714,23.0676471 12.7542857,25.4382353 16.5628571,22.7029412 Z"></path>
                                <path d="M11.78,21.7911765 C12.4885714,21.9735294 13.2857143,21.9735294 13.9942857,21.9735294"></path>
                                <path d="M4.25142857,16.7764706 C5.66857143,18.6 7.35142857,19.9676471 9.12285714,20.8794118"></path>
                                <path d="M17.8914286,21.7911765 C17.8914286,21.7911765 16.12,14.6794118 11.16,11.7617647 C6.2,8.84411765 4.42857143,1.82352941 4.42857143,1.82352941 C8.23714286,-0.911764706 14.4371429,1.36764706 18.1571429,6.83823529 C21.8771429,12.3088235 21.7,19.0558824 17.8914286,21.7911765 Z"></path>
                            </g>
                            <g transform="translate(12.400000, 0.000000)" id="Shape">
                                <path d="M7.61714286,12.7647059 C5.22571429,7.47647059 7.97142857,0.638235294 7.97142857,0.638235294 C5.04857143,0.547058824 2.39142857,2.64411765 0.797142857,5.83529412"></path>
                                <path d="M8.94571429,24.9823529 C8.94571429,24.9823529 11.6028571,18.1441176 9.21142857,12.8558824 C6.82,7.56764706 9.47714286,0.729411765 9.47714286,0.729411765 C14.1714286,0.820588235 17.8028571,6.38235294 17.6257143,13.1294118 C17.4485714,19.8764706 13.5514286,25.1647059 8.94571429,24.9823529 Z"></path>
                                <path d="M15.7657143,8.47941176 C16.2085714,9.66470588 16.5628571,11.3058824 16.3857143,12.6735294"></path>
                                <path d="M11.16,2.82647059 C12.4,3.46470588 13.5514286,4.46764706 14.4371429,5.83529412"></path>
                            </g>
                        </g>
                    </g>
                </g>
            </g>
        </g>
    </g>
</svg>