<!DOCTYPE svg PUBLIC "-//W3C//DTD SVG 1.1//EN" "http://www.w3.org/Graphics/SVG/1.1/DTD/svg11.dtd">
<!-- Uploaded to: SVG Repo, www.svgrepo.com, Transformed by: SVG Repo Mixer Tools -->
<svg width="212px" height="212px" viewBox="-665.6 -665.6 2355.20 2355.20" fill="#4d483d" class="icon" version="1.1" xmlns="http://www.w3.org/2000/svg" stroke="#4d483d" stroke-width="0.01024" transform="rotate(0)">
<g id="SVGRepo_bgCarrier" stroke-width="0"/>
<g id="SVGRepo_tracerCarrier" stroke-linecap="round" stroke-linejoin="round"/>
<g id="SVGRepo_iconCarrier">
<path d="M615.988 1023.932H200.042c-57.336 0-103.988-46.65-103.988-103.986v-623.92a7.994 7.994 0 0 1 8-7.998h591.922c4.422 0 8 3.578 8 7.998v623.92c0 62.192-35.37 103.986-87.988 103.986zM112.052 304.024v615.92c0 48.51 39.472 87.988 87.99 87.988h415.948c53.132 0 71.988-47.4 71.988-87.988v-615.92H112.052zM855.958 863.952h-127.984c-4.422 0-8-3.578-8-7.998a7.994 7.994 0 0 1 8-7.998h127.984c30.872 0 55.992-25.124 55.992-55.994V503.998c0-30.872-25.122-55.992-55.992-55.992h-127.984c-4.422 0-8-3.578-8-8s3.578-8 8-8h127.984c39.696 0 71.988 32.292 71.988 71.99V791.96c0 39.698-32.294 71.992-71.988 71.992z" fill=""/>
<path d="M839.958 815.958h-111.984c-4.422 0-8-3.578-8-8s3.578-7.998 8-7.998h111.984c13.234 0 23.996-10.766 23.996-23.998V519.996c0-13.232-10.762-23.996-23.996-23.996h-111.984c-4.422 0-8-3.578-8-8a7.994 7.994 0 0 1 8-7.998h111.984c22.058 0 39.996 17.936 39.996 39.994v255.966c0 22.062-17.938 39.996-39.996 39.996zM136.05 927.944c-4.422 0-8-3.578-8-7.998V328.022c0-4.422 3.578-8 8-8a7.994 7.994 0 0 1 7.998 8v591.924a7.994 7.994 0 0 1-7.998 7.998zM400.014 863.952c-105.854 0-191.974-86.114-191.974-191.974s86.122-191.974 191.974-191.974 191.974 86.114 191.974 191.974-86.12 191.974-191.974 191.974z m0-367.952c-97.034 0-175.976 78.944-175.976 175.976 0 97.036 78.944 175.978 175.976 175.978 97.036 0 175.978-78.944 175.978-175.978 0-97.032-78.942-175.976-175.978-175.976z" fill=""/>
<path d="M200.042 991.936c-39.698 0-71.992-32.292-71.992-71.99 0-4.422 3.578-8 8-8a7.994 7.994 0 0 1 7.998 8c0 30.87 25.122 55.992 55.994 55.992a7.998 7.998 0 1 1 0 15.998zM469.358 778.682a7.928 7.928 0 0 1-3.78-0.954l-65.562-35.122-65.562 35.122a7.98 7.98 0 0 1-8.484-0.578 7.994 7.994 0 0 1-3.172-7.888l13.156-73.194-53.68-51.51a7.982 7.982 0 0 1-2.07-8.232 7.98 7.98 0 0 1 6.524-5.454l73.702-10.124 32.386-66.958c2.67-5.532 11.732-5.532 14.404 0l32.386 66.958 73.702 10.124a7.974 7.974 0 0 1 6.522 5.454 8.016 8.016 0 0 1-2.07 8.248l-53.688 51.494 13.162 73.194a7.99 7.99 0 0 1-3.172 7.888 8 8 0 0 1-4.704 1.532z m-164.072-134.218l44.838 43.026a8.008 8.008 0 0 1 2.334 7.188l-10.99 61.148 54.766-29.34a7.914 7.914 0 0 1 7.562 0l54.766 29.34-10.998-61.148a8.054 8.054 0 0 1 2.336-7.204l44.846-43.01-61.562-8.452a7.988 7.988 0 0 1-6.116-4.438l-27.052-55.93-27.05 55.93a7.992 7.992 0 0 1-6.116 4.438l-61.564 8.452z" fill=""/>
<path d="M392.032 240.034a8 8 0 0 1-5.64-2.328 8.016 8.016 0 0 1-0.054-11.31c1.75-1.766 42.354-44.104-0.718-101.55-51.564-68.742 0.21-121.906 0.742-122.438a7.988 7.988 0 0 1 11.28-0.016 8.02 8.02 0 0 1 0.054 11.312c-1.75 1.766-42.354 44.104 0.718 101.548 51.564 68.742-0.21 121.906-0.742 122.438a7.954 7.954 0 0 1-5.64 2.344zM482.684 240.034a8 8 0 0 1-5.64-2.328 8.016 8.016 0 0 1-0.054-11.31c1.75-1.766 42.354-44.104-0.718-101.55a7.994 7.994 0 0 1 1.602-11.202c3.524-2.656 8.546-1.922 11.194 1.61 51.556 68.742-0.21 121.906-0.742 122.438a7.954 7.954 0 0 1-5.642 2.342zM296.044 240.034a8 8 0 0 1-5.64-2.328 8.016 8.016 0 0 1-0.054-11.31c1.75-1.766 42.354-44.104-0.718-101.55a7.996 7.996 0 0 1 1.602-11.202c3.514-2.656 8.538-1.922 11.194 1.61 51.554 68.742-0.21 121.906-0.742 122.438a7.95 7.95 0 0 1-5.642 2.342zM472.006 384.014c-4.42 0-8-3.578-8-7.998v-80.068c0-4.42 3.578-7.998 8-7.998s8 3.578 8 7.998v80.068a7.998 7.998 0 0 1-8 7.998zM360.02 335.99c-4.422 0-8-3.578-8-8v-32.042a7.994 7.994 0 0 1 8-7.998 7.994 7.994 0 0 1 7.998 7.998v32.042c0 4.422-3.576 8-7.998 8zM583.992 480.002c-4.422 0-8-3.578-8-8v-176.056c0-4.42 3.578-7.998 8-7.998s7.996 3.578 7.996 7.998v176.056c0 4.422-3.574 8-7.996 8zM248.034 368.016a7.994 7.994 0 0 1-7.998-7.998v-63.992a7.994 7.994 0 0 1 7.998-7.998c4.422 0 8 3.578 8 7.998v63.992a7.994 7.994 0 0 1-8 7.998z" fill=""/>
</g>
</svg>